<?xml version="1.0" encoding="UTF-8" standalone="no"?><!DOCTYPE svg PUBLIC "-//W3C//DTD SVG 1.1//EN" "http://www.w3.org/Graphics/SVG/1.1/DTD/svg11.dtd"><svg width="100%" height="100%" viewBox="0 0 1280 720" version="1.1" xmlns="http://www.w3.org/2000/svg" xmlns:xlink="http://www.w3.org/1999/xlink" xml:space="preserve" xmlns:serif="http://www.serif.com/" style="fill-rule:evenodd;clip-rule:evenodd;stroke-linecap:round;stroke-linejoin:round;stroke-miterlimit:1.5;"><g><g><clipPath id="_clip1"><ellipse cx="190.207" cy="380.102" rx="148.803" ry="150.269"/></clipPath><g clip-path="url(#_clip1)"><rect x="105.098" y="228.504" width="170.218" height="301.867" style="fill:#fff;"/><rect x="275.316" y="228.504" width="170.218" height="301.867" style="fill:#ce2b37;"/><rect x="-65.119" y="228.504" width="170.218" height="301.867" style="fill:#009246;"/></g></g></g><ellipse cx="190.207" cy="380.102" rx="148.803" ry="150.269" style="fill:none;stroke:#000;stroke-width:1.86px;"/><ellipse cx="255.296" cy="319.485" rx="35.68" ry="35.888" style="fill:#f4f4f4;"/><ellipse cx="125.125" cy="319.485" rx="35.68" ry="35.888" style="fill:#f4f4f4;"/><ellipse cx="125.125" cy="319.485" rx="20.205" ry="20.323"/><ellipse cx="129.836" cy="307.955" rx="4.711" ry="4.738" style="fill:#fff4f4;"/><ellipse cx="256.994" cy="319.485" rx="20.205" ry="20.323"/><ellipse cx="261.705" cy="307.955" rx="4.711" ry="4.738" style="fill:#fff4f4;"/><path d="M143.606,399.242c-0,-0 1.605,0.744 3.812,1.701l-3.812,-1.701l10.406,-30.026c0,0 -4.79,23.055 -6.204,29.86c-0.35,1.681 0.337,3.409 1.738,4.386c0.429,0.286 0.878,0.512 1.354,0.671c2.022,0.672 4.209,-0.405 4.916,-2.425c2.537,-7.052 9.997,-28.265 9.997,-28.265c-0,-0 -4.083,19.691 -5.808,28.032c-0.31,1.489 0.106,3.044 1.123,4.18c1.011,1.13 2.504,1.708 4.018,1.555c0.033,-0.013 0.072,-0.02 0.105,-0.026c1.315,-0.153 2.419,-1.057 2.828,-2.32c2.035,-6.194 9.574,-29.275 9.574,-29.275l-5.913,31.236l-4.143,-0.439c2.795,0.299 4.348,0.446 4.143,0.439c-0,-0 -0.674,2.519 -1.408,5.27c-1.605,6.021 -4.75,11.517 -9.124,15.937c-2.22,2.239 -4.718,4.326 -7.15,5.409l-13.459,81.751c-0.389,1.482 -1.209,2.778 -2.273,3.615c-1.063,0.838 -2.286,1.137 -3.396,0.838l-0.006,-0c-1.104,-0.3 -2.016,-1.177 -2.518,-2.433c-0.508,-1.256 -0.568,-2.798 -0.178,-4.28l13.459,-81.743c-1.579,-2.187 -2.709,-5.277 -3.508,-8.368c-1.573,-6.007 -1.56,-12.321 0.039,-18.322c0.72,-2.752 1.388,-5.257 1.388,-5.257Z"/><path d="M215.454,375.948c-0,0 1.05,-0.146 2.53,-0.359c2.518,-0.352 5.075,0.313 7.11,1.848c2.028,1.542 3.369,3.835 3.726,6.367c3.205,22.948 15.131,111.776 17.761,130.597c0.224,1.602 -0.192,3.23 -1.157,4.519c-0.971,1.296 -2.411,2.147 -4.004,2.373l-0.013,-0c-1.592,0.226 -3.211,-0.193 -4.493,-1.17c-1.288,-0.97 -2.134,-2.419 -2.359,-4.021c-3.31,-23.699 -19.101,-140.154 -19.101,-140.154Zm-6.304,10.501c-0.053,-5.343 1.051,-9.743 6.31,-10.481l-0.006,-0.02l10.287,75.723c-5.239,0.738 -7.479,-2.486 -8.834,-7.629c-4.942,-19.147 -7.4,-38.234 -7.757,-57.593Z"/><path d="M41.602,387.944c-0,0 72.515,80.388 97.068,83.093" style="fill:none;stroke:#000;stroke-width:11.53px;"/><path d="M339.01,387.944c0,0 -72.508,80.388 -97.068,83.093" style="fill:none;stroke:#000;stroke-width:11.53px;"/><g transform="matrix(0.932813,0,0,1,-4.76493,0)"><text x="395.992px" y="490.285px" style="font-family:'BrushScriptMT', 'Brush Script MT', cursive;font-style:italic;font-size:415.113px;fill:#fffefb;">Sicilia</text></g></svg>