<?xml version="1.0" encoding="UTF-8" standalone="no"?><!DOCTYPE svg PUBLIC "-//W3C//DTD SVG 1.1//EN" "http://www.w3.org/Graphics/SVG/1.1/DTD/svg11.dtd"><svg width="100%" height="100%" viewBox="0 0 200 200" version="1.1" xmlns="http://www.w3.org/2000/svg" xmlns:xlink="http://www.w3.org/1999/xlink" xml:space="preserve" xmlns:serif="http://www.serif.com/" style="fill-rule:evenodd;clip-rule:evenodd;stroke-linecap:round;stroke-linejoin:round;stroke-miterlimit:1.5;"><g><path d="M37.471,173l-0.471,0l-0,-158l126,0l0,158l-0.471,0c-1.764,-4.59 -8.276,-8 -16.029,-8c-7.753,0 -14.265,3.41 -16.029,8l-0.942,0c-1.764,-4.59 -8.276,-8 -16.029,-8c-6.652,0 -12.391,2.511 -15,6.123c-2.609,-3.612 -8.348,-6.123 -15,-6.123c-6.652,0 -12.391,2.511 -15,6.123c-2.609,-3.612 -8.348,-6.123 -15,-6.123c-7.753,0 -14.265,3.41 -16.029,8Z" style="fill:#ebebeb;stroke:#160202;stroke-width:1px;"/><rect x="97" y="55.5" width="58" height="3" style="fill:#020202;stroke:#160202;stroke-width:1px;"/><rect x="97" y="43.5" width="58" height="3" style="fill:#020202;stroke:#160202;stroke-width:1px;"/><g transform="matrix(1,0,0,0.716071,-4.44089e-16,4.05688)"><text x="51.157px" y="71.152px" style="font-family:'ArialMT', 'Arial', sans-serif;font-size:47.352px;fill:#00ff3d;stroke:#160202;stroke-width:1.15px;stroke-linecap:butt;stroke-miterlimit:2;">$</text></g><rect x="45" y="78.5" width="110" height="3" style="fill:#020202;stroke:#160202;stroke-width:1px;"/><rect x="45" y="105" width="110" height="3" style="fill:#020202;stroke:#160202;stroke-width:1px;"/><rect x="45" y="91" width="110" height="3" style="fill:#020202;stroke:#160202;stroke-width:1px;"/><rect x="45" y="117.5" width="110" height="3" style="fill:#020202;stroke:#160202;stroke-width:1px;"/><rect x="45" y="66" width="110" height="3" style="fill:#020202;stroke:#160202;stroke-width:1px;"/><path id="Accept" d="M148.5,141c-10.814,-0 -19.5,8.686 -19.5,19.5c0,10.814 8.686,19.5 19.5,19.5c10.814,-0 19.5,-8.686 19.5,-19.5c0,-10.814 -8.686,-19.5 -19.5,-19.5Zm-2.659,27.832l-6.825,-6.825l1.241,-1.241l5.584,5.584l13.561,-13.561l1.241,1.241l-14.802,14.802Z" style="fill:#00d526;fill-rule:nonzero;stroke:#160202;stroke-width:1px;stroke-linecap:butt;stroke-miterlimit:2;"/></g></svg>