<?xml version="1.0" encoding="UTF-8" standalone="no"?><!DOCTYPE svg PUBLIC "-//W3C//DTD SVG 1.1//EN" "http://www.w3.org/Graphics/SVG/1.1/DTD/svg11.dtd"><svg width="100%" height="100%" viewBox="0 0 200 200" version="1.1" xmlns="http://www.w3.org/2000/svg" xmlns:xlink="http://www.w3.org/1999/xlink" xml:space="preserve" xmlns:serif="http://www.serif.com/" style="fill-rule:evenodd;clip-rule:evenodd;stroke-linejoin:round;stroke-miterlimit:2;"><g><path d="M167.831,83.429l-130.662,-0l0,48.535c0,14.37 10.4,26.036 23.21,26.036l84.242,0c12.81,0 23.21,-11.666 23.21,-26.036l-0,-48.535Z" style="fill:#fca425;"/><path d="M168.977,77l-132.954,-0c0,-9.934 29.787,-18 66.477,-18c36.69,-0 66.477,8.066 66.477,18Z" style="fill:#fca425;"/><ellipse cx="99.264" cy="54.507" rx="5.934" ry="4.507" style="fill:#eef000;"/><path d="M37.169,88.571c-2.01,0 -3.641,1.153 -3.641,2.572c-0,1.419 1.631,2.571 3.641,2.571l0,2.572c-5.06,-0 -9.169,-2.305 -9.169,-5.143c0,-2.839 4.109,-5.143 9.169,-5.143l0,2.571Z" style="fill:#ffc400;"/><path d="M167.831,88.571c2.01,0 3.641,1.153 3.641,2.572c0,1.419 -1.631,2.571 -3.641,2.571l-0,2.572c5.06,-0 9.169,-2.305 9.169,-5.143c-0,-2.839 -4.109,-5.143 -9.169,-5.143l-0,2.571Z" style="fill:#ffc400;"/><path d="M52.069,83.429c0,-0 -2.099,46.154 4.585,52.714c6.683,6.56 0.92,18.991 12.608,21.857l-8.883,0c-12.81,0 -23.21,-11.666 -23.21,-26.036l0,-48.535l14.9,-0Z" style="fill-opacity:0.15;"/><path d="M52.008,65.297l0.061,11.703l-16.046,-0l1.342,-3.613c2.295,-3.046 7.438,-5.814 14.643,-8.09Z" style="fill-opacity:0.15;"/><path d="M96.769,50.417l0,8.18c-2.029,-0.716 -3.438,-2.279 -3.438,-4.09c-0,-1.81 1.409,-3.373 3.438,-4.09Z" style="fill:#030303;fill-opacity:0.2;"/></g></svg>