<?xml version="1.0" encoding="UTF-8" standalone="no"?><!DOCTYPE svg PUBLIC "-//W3C//DTD SVG 1.1//EN" "http://www.w3.org/Graphics/SVG/1.1/DTD/svg11.dtd"><svg width="100%" height="100%" viewBox="0 0 200 200" version="1.1" xmlns="http://www.w3.org/2000/svg" xmlns:xlink="http://www.w3.org/1999/xlink" xml:space="preserve" xmlns:serif="http://www.serif.com/" style="fill-rule:evenodd;clip-rule:evenodd;stroke-linecap:round;stroke-linejoin:round;stroke-miterlimit:1.5;"><g><ellipse cx="30.426" cy="159.39" rx="21.006" ry="19.058" style="fill:#a78b92;stroke:#1d1414;stroke-width:1px;"/><ellipse cx="153.838" cy="158.684" rx="21.006" ry="21.175" style="fill:#a78b92;stroke:#1d1414;stroke-width:1px;"/><path d="M62.263,140.018l49.562,-0.112l0,-26.28l63.019,0c5.15,8.046 5.286,21.484 2.626,37.926l-115.207,-2.397" style="fill:#ffa779;stroke:#1d1414;stroke-width:1px;"/><path d="M23.861,134.505l22.812,14.65l21.827,0c-16.589,-8.878 -5.348,-80.483 -14.442,-75.615c-12.653,1.063 -21.313,31.846 -30.197,60.965Z" style="fill:#f57e40;stroke:#1d1414;stroke-width:1px;"/><path d="M107.682,113.626l69.788,0c4.596,-3.952 3.734,-7.512 0,-10.867l-69.788,0c-2.739,3.087 -3.371,6.586 -0,10.867Z" style="fill:#260f28;"/><path d="M65.181,76.126l-23.596,0c0.73,-7.621 3.167,-12.489 7.878,-13.69l15.718,-0l-0,13.69Z" style="fill:#1b171b;stroke:#1d1414;stroke-width:1px;"/><path d="M196.507,70.996c-0,-5.843 -4.744,-10.587 -10.588,-10.587l-21.494,-0c-5.843,-0 -10.587,4.744 -10.587,10.587l-0,21.176c-0,5.843 4.744,10.587 10.587,10.587l21.494,0c5.844,0 10.588,-4.744 10.588,-10.587l-0,-21.176Z" style="fill:#f57e40;stroke:#1d1414;stroke-width:1px;"/><path d="M186.724,60.409l-0.064,-0l0,42.35c5.435,0 9.847,-4.744 9.847,-10.587l-0,-21.176c-0,-5.82 -4.378,-10.55 -9.783,-10.587Z" style="fill:#010101;fill-opacity:0.11;"/><path d="M153.838,70.996l42.669,0" style="fill:none;stroke:#000;stroke-width:3.47px;"/><path d="M89.82,139.906l-20.011,0c0,0 -1.137,-10.821 7.416,-10.853c6.325,-0.024 10.73,-0.012 12.595,-0.005l0,10.858Z" style="fill:#231e24;stroke:#1d1414;stroke-width:1px;"/><path d="M81.93,129.041l-0.301,-28.534c-0,0 0.496,-13.741 12.067,-13.793c11.572,-0.053 12.068,-0 12.068,-0l22.627,-0l0,9.196c0,-0 1.806,6.849 -9.051,6.849c-10.857,0.001 -18.931,0 -18.931,0c0,0 -8.393,0.636 -8.612,3.483c-0.22,2.848 -0.757,22.797 -0.757,22.797l-9.11,0.002Z" style="fill:#e43d46;stroke:#1d1414;stroke-width:1px;"/><path d="M100.856,86.697l27.531,-0c-0.287,-2.254 -0.647,-4.557 -1.081,-6.891c-4.123,-22.156 -13.446,-38.858 -20.806,-37.274c-7.36,1.584 -9.987,20.857 -5.864,43.012c0.072,0.386 0.145,0.77 0.22,1.153Z" style="fill:#fb5028;stroke:#1d1414;stroke-width:1px;"/><path d="M104.741,52.738c0,0 6.374,7.126 4.491,9.698c-1.883,2.571 -11.373,4.825 -15.791,5.73c-3.473,0.712 -7.151,-0.089 -10.717,-0.297c-4.373,-0.254 -11.313,-0.743 -15.519,-1.23l0,-5.65c6.573,0.371 13.087,0.575 19.38,0.143c0,-0 5.883,1.416 10.331,-4.228c1.641,-2.082 4.137,-3.551 7.825,-4.166Z" style="fill:#e43d46;stroke:#1d1414;stroke-width:1px;"/><path d="M67.205,66.639c-5.455,-0 -9.883,-1.266 -9.883,-2.825c-0,-1.559 4.428,-2.825 9.883,-2.825l0,5.65Z" style="fill:#f3ff97;stroke:#1d1414;stroke-width:1px;"/><ellipse cx="100.712" cy="31.463" rx="13.436" ry="13.404" style="fill:#ffe042;stroke:#1d1414;stroke-width:1px;"/><path d="M84.557,25.117c1.401,-8.051 7.497,-14.117 14.796,-14.117c8.333,0 15.098,7.907 15.098,17.646c0,9.739 -6.765,17.646 -15.098,17.646l-0,-21.175l-14.796,-0Z" style="fill:#120101;stroke:#1d1414;stroke-width:1px;"/><path d="M103.934,43.956c0.777,-0.739 1.634,-1.223 2.566,-1.424c7.36,-1.584 16.683,15.118 20.806,37.274c0.434,2.332 0.793,4.632 1.08,6.885l-4.745,-0c0,-0 0.545,-12.591 -5.251,-22.128c-5.797,-9.538 -6.057,-14.016 -13.324,-19.58c-0.476,-0.365 -0.849,-0.706 -1.132,-1.027Z" style="fill:#0f0e0e;fill-opacity:0.11;"/><path d="M123.637,86.714l4.754,-0l0,9.196c0,-0 1.613,6.113 -7.366,6.789l2.612,-15.985Z" style="fill:#020202;fill-opacity:0.16;"/><path d="M165.45,118.288l-53.625,-0l0,-4.662l63.019,0c0.894,1.396 1.636,2.954 2.239,4.662l0.363,1.099c2.48,8.056 2.126,19.162 0.028,32.141l-3.966,-0.058c-0,0 -12.483,-7.651 -6.541,-13.419c4.553,-4.421 0.585,-15.043 -1.517,-19.763Z" style="fill:#020100;fill-opacity:0.23;"/><path d="M177.47,157.294l-47.264,-0c-0,-12.856 10.589,-23.293 23.632,-23.293c13.043,0 23.632,10.437 23.632,23.293Z" style="fill:#f54040;stroke:#1d1414;stroke-width:1px;"/><path d="M11.602,150.928l38.323,1.365c0.972,2.194 1.507,4.589 1.507,7.097l-42.013,0c0,-3.039 0.786,-5.912 2.183,-8.462Z" style="fill:#040404;fill-opacity:0.14;"/><path d="M3.493,155.882c3.888,-33.553 56.638,-37.871 50.565,0l-50.565,0Z" style="fill:#f54040;stroke:#1d1414;stroke-width:1px;"/><path d="M153.991,134.002c12.972,0.081 23.479,10.486 23.479,23.292l-2.938,-0c-0.094,-0.18 -0.006,-0.418 0.312,-0.727c2.76,-2.687 -18.38,-15.155 -18.38,-15.155c-11.549,-6.045 -8.467,-7.19 -2.626,-7.411l0.153,0.001Z" style="fill:#060002;fill-opacity:0.24;"/><path d="M25.124,130.356c2.445,-0.732 4.938,-1.156 7.387,-1.258c12.914,-0.54 24.583,7.848 21.547,26.784l-3.939,0l-5.251,-10.235l-9.191,-8.138c0,0 -10.519,-4.231 -10.553,-7.153Z" style="fill:#180f0f;fill-opacity:0.18;"/><path d="M174.8,157.294c0.029,0.352 0.044,0.708 0.044,1.067c0,1.235 0.207,1.543 -0.131,2.7l-41.603,-0.05c-0.183,-0.862 -0.278,-1.748 -0.278,-2.65c-0,-0.359 0.015,-0.715 0.044,-1.067l41.924,-0Z" style="fill:#060606;fill-opacity:0.16;"/><path d="M56.054,140.874c-1.922,-7.147 -2.671,-18.351 -2.671,-18.351c0,-0 -3.261,-15.524 -0.638,-46.586c0.066,-0.783 0.138,-1.526 0.215,-2.229c0.362,-0.08 0.728,-0.137 1.098,-0.168c7.667,-4.104 0.881,46.146 8.499,67.334l-6.503,0Z" style="fill:#020202;fill-opacity:0.07;"/></g></svg>