<?xml version="1.0" encoding="UTF-8" standalone="no"?><!DOCTYPE svg PUBLIC "-//W3C//DTD SVG 1.1//EN" "http://www.w3.org/Graphics/SVG/1.1/DTD/svg11.dtd"><svg width="100%" height="100%" viewBox="0 0 200 200" version="1.1" xmlns="http://www.w3.org/2000/svg" xmlns:xlink="http://www.w3.org/1999/xlink" xml:space="preserve" xmlns:serif="http://www.serif.com/" style="fill-rule:evenodd;clip-rule:evenodd;stroke-linecap:round;stroke-linejoin:round;stroke-miterlimit:1.5;"><g><g><g><path d="M103.957,42.386c-0,-0 5.492,-35.012 20.225,-35.01" style="fill:none;stroke:#d19e86;stroke-width:5.9px;"/><path d="M144.407,42.386c0,-0 -5.492,-35.012 -20.225,-35.01" style="fill:none;stroke:#d19e86;stroke-width:5.9px;"/></g><g><path d="M99.155,44.027c0,-0 5.972,-41.029 25.027,-41.027" style="fill:none;stroke:#0c0705;stroke-width:2.78px;"/><path d="M148.077,44.027c0,-0 -4.84,-41.029 -23.895,-41.027" style="fill:none;stroke:#0c0705;stroke-width:2.78px;"/></g><g><path d="M107.578,44.027c0,-0 5.397,-33.226 16.604,-33.224" style="fill:none;stroke:#0c0705;stroke-width:2.09px;"/><path d="M140.611,44.027c0,-0 -4.177,-33.226 -15.384,-33.224" style="fill:none;stroke:#0c0705;stroke-width:2.09px;"/></g><rect x="60.248" y="45.668" width="132.395" height="115.969" style="fill:#d19e86;stroke:#1d1414;stroke-width:3.47px;"/><rect x="60.248" y="45.668" width="36.428" height="115.969" style="fill:#0e0906;fill-opacity:0.11;"/><rect x="160.741" y="45.668" width="31.901" height="115.969" style="fill:#0e0906;fill-opacity:0.2;"/></g><g><g><path d="M84.603,125.181l0,17.351" style="fill:none;stroke:#0b0400;stroke-width:2.78px;"/><path d="M84.603,142.532l37.474,-0c2.3,-0 4.506,-0.914 6.133,-2.541c1.627,-1.626 2.541,-3.833 2.541,-6.133c-0,-0.001 -0,-0.002 -0,-0.003c-0,-2.301 -0.914,-4.507 -2.541,-6.134c-1.627,-1.626 -3.833,-2.54 -6.133,-2.54c-13.367,-0 -37.474,-0 -37.474,-0" style="fill:#ffd19e;stroke:#0b0400;stroke-width:2.78px;"/><path d="M84.603,159.883l0,17.351" style="fill:none;stroke:#0b0400;stroke-width:2.78px;"/><path d="M84.603,177.234l37.474,-0c2.3,-0 4.506,-0.914 6.133,-2.541c1.627,-1.627 2.541,-3.833 2.541,-6.133c-0,-0.001 -0,-0.002 -0,-0.003c-0,-2.301 -0.914,-4.507 -2.541,-6.134c-1.627,-1.626 -3.833,-2.54 -6.133,-2.54c-13.367,-0 -37.474,-0 -37.474,-0" style="fill:#ffd19e;stroke:#0b0400;stroke-width:2.78px;"/><path d="M84.603,194.585l24.655,-0c2.3,-0 4.507,-0.914 6.133,-2.541c1.627,-1.627 2.541,-3.833 2.541,-6.134c-0,-0 -0,-0.001 -0,-0.002c-0,-2.301 -0.914,-4.507 -2.541,-6.134c-1.626,-1.627 -3.833,-2.54 -6.133,-2.54c-9.875,-0 -24.655,-0 -24.655,-0" style="fill:#ffd19e;stroke:#0b0400;stroke-width:2.78px;"/><path d="M84.603,125.181l10.841,-12.336c1.575,-1.726 2.376,-3.985 2.227,-6.281c-0.149,-2.297 -1.235,-4.442 -3.02,-5.964c0,-0 0,-0 0,-0c-1.784,-1.522 -4.121,-2.297 -6.496,-2.153c-2.375,0.144 -4.594,1.194 -6.169,2.919l-21.729,23.815l-3.33,-0c-5.579,-0 -10.929,2.142 -14.874,5.956c-3.945,3.814 -6.161,8.987 -6.161,14.381c0,9.049 0,19.681 0,28.73c0,5.393 2.216,10.566 6.161,14.38c3.945,3.814 9.295,5.957 14.874,5.957c13.177,-0 27.676,-0 27.676,-0m0,-34.702l46.148,-0c4.955,-0 8.973,-3.884 8.973,-8.676l-0,0c-0,-4.791 -4.018,-8.675 -8.973,-8.675l-46.148,-0" style="fill:#ffd19e;stroke:#0b0400;stroke-width:2.78px;"/></g><path d="M-0,126.663l-0,66.465l33.471,0c8.632,0 15.64,-7.445 15.64,-16.616l-0,-33.233c-0,-9.171 -7.008,-16.616 -15.64,-16.616l-33.471,-0Z" style="fill:#00a309;stroke:#1d0900;stroke-width:2.78px;"/></g></g><path d="M84.603,125.181l0,3.87c0,0 43.035,0.66 45.222,1.841c2.188,1.181 -4.168,-4.761 -4.168,-4.761l-5.022,-0.95l-36.032,-0Z" style="fill:#070707;fill-opacity:0.28;"/><path d="M84.603,177.234l0,5.766l32.791,-0.101l-6.249,-5.458l-26.542,-0.207Z" style="fill:#091109;fill-opacity:0.28;"/><path d="M84.603,159.883l0,3.918l45.681,0.194l-6.182,-4.112l-39.499,-0Z" style="fill:#040b04;fill-opacity:0.28;"/><path d="M84.603,142.532l0,3.975l53.691,0l-2.531,-2.496l-5.012,-1.479l-46.148,-0" style="fill:#091109;fill-opacity:0.28;"/><path d="M84.603,125.181l-2.603,-3.181l14.675,-18.899l0.776,5.988" style="fill:#18381a;fill-opacity:0.28;"/><path d="M0,185l47.353,-0.833l-7.388,7.463l-39.965,1.498l0,-8.128Z" style="fill:#010101;fill-opacity:0.28;"/></svg>