<?xml version="1.0" encoding="UTF-8" standalone="no"?><!DOCTYPE svg PUBLIC "-//W3C//DTD SVG 1.1//EN" "http://www.w3.org/Graphics/SVG/1.1/DTD/svg11.dtd"><svg width="100%" height="100%" viewBox="0 0 48 48" version="1.1" xmlns="http://www.w3.org/2000/svg" xmlns:xlink="http://www.w3.org/1999/xlink" xml:space="preserve" xmlns:serif="http://www.serif.com/" style="fill-rule:evenodd;clip-rule:evenodd;stroke-linecap:round;stroke-linejoin:round;stroke-miterlimit:1.5;"><g><ellipse cx="23.88" cy="23.997" rx="22.521" ry="22.611" style="fill:#ededed;"/><clipPath id="_clip1"><ellipse cx="23.88" cy="23.997" rx="22.521" ry="22.611"/></clipPath><g clip-path="url(#_clip1)"><g><rect x="10.999" y="1.186" width="25.762" height="45.422" style="fill:#fff;"/><rect x="36.761" y="1.186" width="25.762" height="45.422" style="fill:#ce2b37;"/><rect x="-14.763" y="1.186" width="25.762" height="45.422" style="fill:#009246;"/></g></g><ellipse cx="23.88" cy="23.997" rx="22.521" ry="22.611" style="fill:none;stroke:#000;stroke-width:0.28px;"/></g><circle cx="33.731" cy="14.876" r="5.4" style="fill:#f4f4f4;"/><circle cx="14.03" cy="14.876" r="5.4" style="fill:#f4f4f4;"/><circle cx="14.03" cy="14.876" r="3.058"/><circle cx="14.743" cy="13.141" r="0.713" style="fill:#fff4f4;"/><circle cx="33.988" cy="14.876" r="3.058"/><circle cx="34.701" cy="13.141" r="0.713" style="fill:#fff4f4;"/><path d="M16.827,26.877c0,0 0.243,0.112 0.577,0.256l-0.577,-0.256l1.575,-4.518c0,0 -0.725,3.469 -0.939,4.493c-0.053,0.253 0.051,0.513 0.263,0.66c0.065,0.043 0.133,0.077 0.205,0.101c0.306,0.101 0.637,-0.061 0.744,-0.365c0.384,-1.061 1.513,-4.253 1.513,-4.253c0,0 -0.618,2.963 -0.879,4.218c-0.047,0.224 0.016,0.458 0.17,0.629c0.153,0.17 0.379,0.257 0.608,0.234c0.005,-0.002 0.011,-0.003 0.016,-0.004c0.199,-0.023 0.366,-0.159 0.428,-0.349c0.308,-0.932 1.449,-4.405 1.449,-4.405l-0.895,4.7l-0.627,-0.066c0.423,0.045 0.658,0.067 0.627,0.066c0,0 -0.102,0.379 -0.213,0.793c-0.243,0.906 -0.719,1.733 -1.381,2.398c-0.336,0.337 -0.714,0.651 -1.082,0.814l-2.037,12.301c-0.059,0.223 -0.183,0.418 -0.344,0.544c-0.161,0.126 -0.346,0.171 -0.514,0.126c-0,0 -0,0 -0.001,0c-0.167,-0.045 -0.305,-0.177 -0.381,-0.366c-0.077,-0.189 -0.086,-0.421 -0.027,-0.644l2.037,-12.3c-0.239,-0.329 -0.41,-0.794 -0.531,-1.259c-0.238,-0.904 -0.236,-1.854 0.006,-2.757c0.109,-0.414 0.21,-0.791 0.21,-0.791Z"/><path d="M27.701,23.372c0,-0 0.159,-0.022 0.383,-0.054c0.381,-0.053 0.768,0.047 1.076,0.278c0.307,0.232 0.51,0.577 0.564,0.958c0.485,3.453 2.29,16.819 2.688,19.651c0.034,0.241 -0.029,0.486 -0.175,0.68c-0.147,0.195 -0.365,0.323 -0.606,0.357c-0.001,0 -0.001,0 -0.002,0c-0.241,0.034 -0.486,-0.029 -0.68,-0.176c-0.195,-0.146 -0.323,-0.364 -0.357,-0.605c-0.501,-3.566 -2.891,-21.089 -2.891,-21.089Zm-0.954,1.58c-0.008,-0.804 0.159,-1.466 0.955,-1.577c-0.001,-0.003 -0.001,-0.003 -0.001,-0.003l1.557,11.394c0,-0 0,-0 0,-0c-0.793,0.111 -1.132,-0.374 -1.337,-1.148c-0.748,-2.881 -1.12,-5.753 -1.174,-8.666Z"/><path d="M1.389,25.177c0,-0 10.975,12.096 14.691,12.503" style="fill:none;stroke:#000;stroke-width:1.74px;"/><path d="M46.401,25.177c0,-0 -10.974,12.096 -14.691,12.503" style="fill:none;stroke:#000;stroke-width:1.74px;"/></svg>