<?xml version="1.0" encoding="UTF-8" standalone="no"?><!DOCTYPE svg PUBLIC "-//W3C//DTD SVG 1.1//EN" "http://www.w3.org/Graphics/SVG/1.1/DTD/svg11.dtd"><svg width="100%" height="100%" viewBox="0 0 100 100" version="1.1" xmlns="http://www.w3.org/2000/svg" xmlns:xlink="http://www.w3.org/1999/xlink" xml:space="preserve" xmlns:serif="http://www.serif.com/" style="fill-rule:evenodd;clip-rule:evenodd;stroke-linejoin:round;stroke-miterlimit:2;"><path d="M21.571,68.442l-0.185,0.093l-0.874,-1.55c-12.389,-22.489 -13.343,-52.71 -2.833,-59.958c0.18,-0.165 0.382,-0.302 0.606,-0.41c0.066,-0.031 0.133,-0.06 0.201,-0.086c0.437,-0.236 0.905,-0.363 1.343,-0.571c0.511,-0.242 1.143,-0.602 1.726,-0.885c0.645,-0.313 1.368,-0.799 2.144,-0.993c1.613,-0.402 4.278,-1.676 7.538,-1.423l13.863,29.055c-0.136,0.016 -7.352,2.73 -7.897,2.588c-0.979,-0.253 -3.052,-0.87 -4.472,-1.47c-2.365,-3.412 -3.181,-2.576 -5.695,-1.368c-1.322,0.635 -0.006,2.505 0.124,4.382l12.789,21.638l16.606,19.274c1.833,0.867 3.167,2.687 4.354,1.88c2.258,-1.534 3.438,-1.852 0.989,-5.142c-0.014,-1.388 0.227,-3.307 0.378,-4.199c0.085,-0.496 3.278,-3.364 3.35,-3.467l25.987,21.124c-1.099,2.728 -3.486,4.357 -4.56,5.493c-0.517,0.546 -1.305,0.93 -1.888,1.322c-0.527,0.355 -1.151,0.718 -1.607,1.031c-0.391,0.268 -0.712,0.594 -1.132,0.85c-0.054,0.044 -0.111,0.087 -0.17,0.127c-0.201,0.136 -0.422,0.243 -0.663,0.321c-11.651,5.52 -41.639,-7.523 -59.105,-26.634l-0.917,-1.022Z" style="fill:#d1411e;"/></svg>