<?xml version="1.0" encoding="UTF-8" standalone="no"?><!DOCTYPE svg PUBLIC "-//W3C//DTD SVG 1.1//EN" "http://www.w3.org/Graphics/SVG/1.1/DTD/svg11.dtd"><svg width="100%" height="100%" viewBox="0 0 903 903" version="1.1" xmlns="http://www.w3.org/2000/svg" xmlns:xlink="http://www.w3.org/1999/xlink" xml:space="preserve" xmlns:serif="http://www.serif.com/" style="fill-rule:evenodd;clip-rule:evenodd;stroke-linecap:round;stroke-linejoin:round;stroke-miterlimit:1.5;"><g><g><g><path d="M235.837,554.477l-99.223,-409.258l-115.114,0l-0,-68l165.414,0l24.805,101.981l669.641,-0.503l-65.5,375.78c0.868,21.257 -7.384,27.924 -21.434,25.313c-174.919,-0.622 -349.839,-1.244 -524.758,-1.866c-9.277,-0.033 -5.554,-1.066 -14.831,-1.099c-10.826,4.531 -17.124,-3.012 -19,-22.348Zm-7.582,-307.29l63.882,262.64l464.273,0l46.924,-263.072l-575.079,0.432Z" style="fill:#fff;fill-rule:nonzero;"/><path d="M330.49,825.641c-57.105,-0 -103.564,-48.784 -103.564,-108.745c0,-59.961 46.459,-108.741 103.564,-108.741l390.188,-0c57.106,-0 103.565,48.78 103.565,108.741c0,59.962 -46.458,108.745 -103.565,108.745c-57.106,-0 -103.564,-48.784 -103.564,-108.745c0,-14.399 2.687,-28.152 7.55,-40.741l-198.16,-0c4.864,12.59 7.551,26.341 7.551,40.741c-0.001,59.962 -46.46,108.745 -103.565,108.745Zm351.386,-108.744c-0,22.467 17.406,40.744 38.802,40.744c21.396,-0 38.804,-18.277 38.804,-40.744c-0,-22.465 -17.407,-40.742 -38.804,-40.742c-21.396,-0 -38.802,18.277 -38.802,40.742Zm-390.19,-0c0,22.467 17.407,40.744 38.803,40.744c21.396,-0 38.803,-18.277 38.803,-40.744c-0,-22.465 -17.407,-40.742 -38.803,-40.742c-21.396,-0 -38.803,18.277 -38.803,40.742Z" style="fill:#fff;fill-rule:nonzero;"/></g><g><path d="M815.86,367l-597,4" style="fill:none;stroke:#fff;stroke-width:53.85px;"/><path d="M515.033,204.523l4.951,349.954" style="fill:none;stroke:#fff;stroke-width:53.85px;"/><path d="M376.033,204.523l4.951,349.954" style="fill:none;stroke:#fff;stroke-width:53.85px;"/><path d="M654.033,204.523l4.951,349.954" style="fill:none;stroke:#fff;stroke-width:53.85px;"/></g></g></g></svg>